<?xml version="1.0" standalone="no"?>
<!DOCTYPE svg PUBLIC "-//W3C//DTD SVG 20010904//EN"
 "http://www.w3.org/TR/2001/REC-SVG-20010904/DTD/svg10.dtd">
<svg version="1.0" xmlns="http://www.w3.org/2000/svg"
 width="160.000000pt" height="160.000000pt" viewBox="0 0 160.000000 160.000000"
 preserveAspectRatio="xMidYMid meet">

<g transform="translate(0.000000,160.000000) scale(0.100000,-0.100000)"
fill="#000000" stroke="none">
<path d="M1110 1294 c-14 -3 -119 -23 -235 -45 -116 -21 -237 -43 -270 -47
l-60 -7 225 -169 c124 -94 266 -204 315 -245 121 -102 291 -273 355 -360 29
-39 54 -71 56 -71 2 0 4 204 4 454 l0 454 -67 17 c-66 17 -269 29 -323 19z"/>
<path d="M100 783 l0 -441 48 -16 c26 -8 89 -21 140 -27 112 -14 219 -4 497
46 105 19 207 37 229 40 l39 6 -39 27 c-89 60 -418 313 -529 408 -125 105
-222 203 -314 314 -29 36 -57 69 -62 75 -5 5 -9 -175 -9 -432z"/>
<path d="M237 1134 c127 -143 252 -250 559 -481 109 -82 224 -173 255 -201
l57 -52 89 0 c49 0 115 -5 147 -11 31 -5 62 -9 67 -7 16 5 -207 227 -331 329
-63 53 -189 151 -280 219 -91 67 -201 152 -245 187 l-80 64 -105 3 c-58 2
-125 7 -150 11 l-45 8 62 -69z"/>
<path d="M1435 380 c3 -5 11 -10 16 -10 6 0 7 5 4 10 -3 6 -11 10 -16 10 -6 0
-7 -4 -4 -10z"/>
</g>
</svg>
