<svg xmlns="http://www.w3.org/2000/svg" version="1.1" xmlns:xlink="http://www.w3.org/1999/xlink" xmlns:svgjs="http://svgjs.dev/svgjs" width="1440" height="8000" preserveAspectRatio="none" viewBox="0 0 1440 8000"><g mask="url(&quot;#SvgjsMask1063&quot;)" fill="none"><path d="M150.656,4329.316C190.605,4327.04,230.962,4316.926,252.814,4283.406C276.718,4246.738,283.289,4198.369,260.304,4161.119C238.189,4125.279,192.744,4119.334,150.656,4117.844C104.661,4116.215,53.014,4115.102,26.678,4152.846C-2.654,4194.884,-3.344,4254.379,26.123,4296.323C52.581,4333.984,104.705,4331.934,150.656,4329.316" fill="rgba(0, 0, 0, 0.5)" class="triangle-float2"></path><path d="M541.457,4203.448C665.77,4197.137,790.663,4160.659,856.733,4055.168C926.751,3943.374,933.414,3799.141,865.508,3686.052C799.368,3575.904,669.825,3524.748,541.457,3530.112C422.316,3535.091,327.616,3612.304,261.149,3711.307C183.311,3827.247,96.275,3968.923,165.388,4090.266C234.83,4212.186,401.328,4210.562,541.457,4203.448" fill="rgba(0, 0, 0, 0.5)" class="triangle-float2"></path><path d="M936.342,7251.806C982.9,7250.73,1008.408,7201.909,1029.033,7160.155C1046.705,7124.378,1055.879,7083.691,1036.656,7048.722C1016.783,7012.571,977.594,6991.204,936.342,6991.538C895.656,6991.868,859.224,7015.134,838.805,7050.326C818.306,7085.656,818.12,7127.853,835.918,7164.618C856.621,7207.383,888.842,7252.904,936.342,7251.806" fill="rgba(0, 0, 0, 0.5)" class="triangle-float2"></path><path d="M1355.835,5199.804C1482.276,5196.889,1606.332,5151.308,1673.911,5044.402C1746.26,4929.951,1758.841,4784.405,1693.329,4665.908C1625.793,4543.749,1495.417,4470.009,1355.835,4469.068C1214.592,4468.116,1081.536,4539.299,1010.364,4661.303C938.648,4784.24,934.447,4939.886,1011.299,5059.679C1083.052,5171.523,1222.988,5202.867,1355.835,5199.804" fill="rgba(0, 0, 0, 0.5)" class="triangle-float3"></path><path d="M1330.069,6896.44C1404.918,6893.16,1480.206,6869.665,1519.092,6805.626C1559.346,6739.334,1553.968,6656.746,1517.025,6588.554C1478.094,6516.692,1411.792,6455.678,1330.069,6456.715C1249.68,6457.735,1192.515,6524.257,1151.156,6593.198C1108.148,6664.888,1067.514,6751.549,1109.996,6823.552C1152.083,6894.887,1247.323,6900.066,1330.069,6896.44" fill="rgba(0, 0, 0, 0.5)" class="triangle-float3"></path><path d="M692.142,1669.468C785.131,1664.02,866.96,1617.295,918.148,1539.473C975.925,1451.633,1018.613,1341.865,968.376,1249.506C916.58,1154.279,800.516,1126.41,692.142,1123.967C578.135,1121.397,453.74,1139.742,393.466,1236.548C330.566,1337.573,347.505,1470.991,415.086,1568.947C474.881,1655.618,587.026,1675.627,692.142,1669.468" fill="rgba(0, 0, 0, 0.5)" class="triangle-float2"></path><path d="M1005.296,2185.421C1046.687,2185.866,1084.577,2163.412,1105.883,2127.923C1127.86,2091.315,1132.308,2045.817,1111.486,2008.54C1090.177,1970.39,1048.977,1946.618,1005.296,1947.845C963.514,1949.018,928.948,1977.52,908.958,2014.228C889.894,2049.235,888.837,2091.062,908.386,2125.8C928.322,2161.226,964.648,2184.984,1005.296,2185.421" fill="rgba(0, 0, 0, 0.5)" class="triangle-float2"></path><path d="M949.117,5228.791C1026.261,5228.989,1108.61,5211.179,1148.082,5144.898C1188.264,5077.426,1173.335,4991.041,1129.515,4925.873C1090.423,4867.737,1019.1,4852.224,949.117,4849.002C870.714,4845.392,781.084,4842.58,737.453,4907.821C690.481,4978.057,705.393,5073.345,751.909,5143.883C794.138,5207.92,872.409,5228.595,949.117,5228.791" fill="rgba(0, 0, 0, 0.5)" class="triangle-float2"></path><path d="M714.485,7166.696C812.117,7169.475,902.867,7115.454,951.764,7030.903C1000.722,6946.246,1003.072,6840.152,951.318,6757.175C902.206,6678.433,807.269,6648.604,714.485,6650.471C625.383,6652.264,538.596,6689.455,493.602,6766.383C448.199,6844.009,456.059,6939.291,499.505,7018.029C544.618,7099.79,621.142,7164.039,714.485,7166.696" fill="rgba(0, 0, 0, 0.5)" class="triangle-float3"></path><path d="M545.155,4913.84C614.143,4915.006,689.173,4907.057,727.259,4849.523C768.666,4786.972,763.615,4704.872,726.723,4639.557C689.199,4573.123,621.362,4523.373,545.155,4527.115C473.744,4530.622,426.158,4593.153,392.052,4655.991C359.931,4715.172,339.031,4785.644,373.409,4843.543C407.259,4900.551,478.864,4912.72,545.155,4913.84" fill="rgba(0, 0, 0, 0.5)" class="triangle-float3"></path><path d="M1205.422,6365.693C1300.062,6368.316,1397.336,6328.391,1441.039,6244.405C1482.346,6165.023,1441.458,6075.425,1396.824,5997.865C1352.037,5920.04,1295.178,5837.509,1205.422,5834.976C1112.629,5832.357,1038.402,5904.797,994.346,5986.507C952.728,6063.695,948.735,6155.322,991.387,6231.944C1035.244,6310.73,1115.287,6363.195,1205.422,6365.693" fill="rgba(0, 0, 0, 0.5)" class="triangle-float2"></path><path d="M868.903,663.729C931.694,659.246,980.819,614.329,1010.444,558.784C1038.15,506.837,1038.307,447.052,1012.758,394.011C982.793,331.802,937.95,265.599,868.903,264.938C799.209,264.271,754.835,330.729,720.199,391.211C685.857,451.18,654.318,521.183,687.419,581.845C721.491,644.286,797.952,668.794,868.903,663.729" fill="rgba(0, 0, 0, 0.5)" class="triangle-float3"></path></g><defs><mask id="SvgjsMask1063"><rect width="1440" height="8000" fill="#ffffff"></rect></mask><style>
                @keyframes float1 {
                    0%{transform: translate(0, 0)}
                    50%{transform: translate(-10px, 0)}
                    100%{transform: translate(0, 0)}
                }

                .triangle-float1 {
                    animation: float1 5s infinite;
                }

                @keyframes float2 {
                    0%{transform: translate(0, 0)}
                    50%{transform: translate(-5px, -5px)}
                    100%{transform: translate(0, 0)}
                }

                .triangle-float2 {
                    animation: float2 4s infinite;
                }

                @keyframes float3 {
                    0%{transform: translate(0, 0)}
                    50%{transform: translate(0, -10px)}
                    100%{transform: translate(0, 0)}
                }

                .triangle-float3 {
                    animation: float3 6s infinite;
                }
            </style></defs></svg>